<svg height="30" viewBox="0 0 134 30" width="134" xmlns="http://www.w3.org/2000/svg"><g fill="none"><g fill="#ffffff"><path d="m105.538884 12.6574679c.90031-.0038691 1.655992-.6793396 1.760441-1.573578l.737614-5.8492844c.04647-.38018967-.07228-.76205916-.32616-1.04884934s-.618527-.45096717-1.001546-.45096717h-17.2110092l-1.0793761 8.92267891h1.7407706.4351927l-4.737945 6.2451376h2.6677064l2.0284404-2.6726238h3.6880734l-7.0712661 9.3234495h2.6726239l7.071266-9.3234495h3.597101l-7.0712661 9.3234495h2.6677064l7.0712657-9.3234495h.678606c.254936.0003119.49757.1096276.666706.3003764.169137.1907487.248631.4447211.218431.6978621l-.737614 5.8763303c-.080842.669228-.648696 1.1726975-1.322789 1.1728073h-2.340697l.671229 1.789945h3.002092c1.351705-.0050848 2.488051-1.0159901 2.650495-2.3579083l.88022-7.2851743c.061336-.5059929-.097476-1.013972-.4361-1.3949242s-.824481-.5982244-1.334175-.5966354h-13.8548623l1.3522935-1.7850276zm-.361431-6.146789-.430275 3.5577615c-.05464.4474561-.434358.7839285-.885138.7843302h-12.5443667l.216367-1.7727339 11.5559637-.01229358.216367-1.78748624h-11.5559637l.216367-1.77028477h12.3206237c.256276-.00117443.500695.10786343.671016.29935653.17032.1914931.250106.44696161.219039.70135026z"/><path d="m74.2591045 12.6353394 3.7323303-7.10814674h2.0013945c.4005602-.00052835.7524105.26587257.8605505.65155963l1.8096146 6.47871561h2.6775413l-2.1980917-7.95148625c-.1595427-.58121801-.6881085-.98393481-1.2908257-.98348661h-2.9209541-2.6849175l-4.6715596 8.90546826z"/><path d="m75.8277651 22.762789.3811009-3.0709358 7.4031927-2.662789.2753761-2.212844-7.4031927 2.6750826.5876331-4.8338349h-2.7045872l-1.2834495 10.3733211c-.0935982.7599235.1429166 1.5235286.6496687 2.0975029.5067522.5739744 1.2351618.9032939 2.0008267.9045888h7.036844l1.1383853-1.7899449h-6.7663853c-.3770272-.0040864-.7348173-.1671157-.9852863-.4489518-.2504689-.281836-.3703488-.6562971-.3301265-1.031195z"/><path d="m70.3054899 12.1067156-2.2988991-.769578-.3835597 3.0881468h-1.4555596c-.1577836-.0011343-.3033078-.0852821-.3830005-.2214659s-.0817736-.3042725-.0054766-.4423873l3.0930643-5.56653212h3.6634862l.2262018-1.78748624h-2.8939082l1.4752293-2.64803669h-2.6922935l-1.4752294 2.64803669h-3.3438532l-.216367 1.78748624h2.5693578l-3.164367 5.70913762c-.2669334.4833101-.2587517 1.071665.0215178 1.5473656.2802695.4757007.7909448.7680004 1.3430694.7687445h3.0070092l-.3319266 2.662789h-4.7600734l-.216367 1.7874862h4.7526972l-.6687706 5.3773905h2.4365872c0 .0244077.3048807-2.4810235.656477-5.3749318h2.6332844l.216367-1.7973211h-2.6234495c.1106422-.9121835.2212844-1.8194495.3220917-2.6603302h2.6480367l.2262018-1.789945h-2.6578715z"/><path d="m55.5138568 21.9120734c-.1687063 1.3403262-1.3094296 2.3450483-2.6603303 2.343156l-12.7558165-.0245872 1.2121468-9.8348624h-2.6824587l-1.4629358 11.6223486h2.7045872l14.6711559.0221349c1.8041672.0033788 3.3264822-1.341579 3.5454679-3.1324101l1.0498716-8.4063486h-2.6750826z"/><path d="m47.6238385 14.1597431-4.5166606 8.022789h2.6873762l2.1931743-3.8946055 2.1857981 3.8847706h2.6873762l-3.5257982-6.2623486h-.0098348l.9859449-1.7506055z"/><path d="m50.6529761 10.8527706.3245504-2.66770638h7.1351927l.2188257-1.78748624h-7.1351927l.3245505-2.67262385h-2.6726239l-.872844 7.12781647"/><path d="m47.9754348 10.8552294-4.4650275-.0024588.6515596-5.31574308h-2.4341284l-.6491009 5.31574308h-2.9062019l-.2262018 1.789945 22.2931743-.0049174.2188257-1.7825688h-9.8053578"/><path d="m124.84226 13.4885138-2.493137-8.85137619c-.161258-.58110187-.690223-.98348623-1.293285-.98348623h-3.454495-2.68l-5.163303 9.83486242h2.645578l-1.180183 9.4980183c-.093702.7607739.143451 1.5251931.651298 2.0993428.507848.5741497 1.237592.902749 2.004115.902749h7.722825s1.116257-1.7751927 1.11134-1.7776514l-7.454826-.0245872c-.382483-.0012151-.746076-.1664169-.998576-.4537122-.252501-.2872952-.369655-.6690892-.321754-1.048563l1.133468-9.146422h4.337174c.255155.001017.497745.1108946.666795.3020155.169051.1911209.248487.4453113.218343.6986817l-.536 4.4256881c-.053595.4480041-.43394.7850319-.885138.7843303h-2.793101l.690899 1.7801101h3.776587c.901564.0015517 1.66194-.6711693 1.770276-1.5662019l.769578-6.2721835c.003667-.0704354.003667-.141014 0-.2114495zm-10.946201-1.772734h-.516331l3.282386-6.25497246h2.537394c.399648.00057383.750198.26675085.858092.65155963l1.608 5.63291743c-.116281-.0251852-.2351-.0367371-.354055-.034422z"/><path d="m131.21771 3.71020183-2.380037 19.33042207c-.083164.6713528-.653681 1.1754324-1.330165 1.175266h-3.265174l.671229 1.8169909h3.882312c1.348919.0003611 2.486666-1.0045261 2.652954-2.343156l2.475927-19.9696881z"/><path d="m125.137306 13.7786422v.0147523l.002459-.0024587z"/><path d="m129.255655 5.50752294-2.31611.01966972-1.984184 16.02590824 2.293982-.0098348z"/></g><path d="m19.980499 19.8737982h-.0245871c-.6081879-.0072551-1.2154807.0487773-1.8120734.1671926-3.1646405.5791901-6.4307072-.0858261-9.11691746-1.8563302-3.76183486-2.5472294-6.58689908-7.6466056-4.90022018-13.57211014-.13522936.14506422-.268.29012844-.39093578.43519266-1.57809097 1.78333326-2.7076272 3.91765097-3.2946789 6.22546788-1.01299082 4.3715963-.28521101 8.359633 2.22513762 12.1903119 3.16436697 4.3642202 7.9736147 6.6803303 13.1934679 6.3557799 1.8139826-.1169512 3.5913231-.5644111 5.2444404-1.3203303.405688-.1893211.9121834-.4548624 1.494899-.7646606 1.6448808-.8654679 3.8601835-2.0358165 6.0115597-2.6136147-1.6375046-3.12011-5.1313395-5.246899-8.6300918-5.246899z" fill="#ffffff"/><path d="m9.41293939 16.6553394c.16965138.130312.43765138.3122569.72040371.4917432-.63680738-1.4752294-.50649545-3.2700918-.0245872-4.521578 1.1801835-3.09306423 4.1945688-5.610789 7.8678899-6.56477066 3.451797-.90991552 7.1288608-.26593537 10.0659817 1.76289909-.1008074-.19177982-.199156-.36388991-.2925872-.52370642-2.766055-4.37405505-6.8844037-6.88440367-11.9001835-7.26796331-.3073394-.01966972-.6171376-.0319633-.9318532-.0319633-1.264612.00752292-2.5233509.17271174-3.7470826.49174312-1.83876986.48701644-3.4764705 1.54295899-4.67893573 3.01684404-.64826141.81224333-1.08198693 1.7743869-1.26132111 2.79801834-.63047982 3.9579671.97886472 7.9401723 4.18227523 10.3487339z" fill="#ffffff"/><path d="m29.8497834 14.6244404c-.0783317-1.3754041-.4711465-2.7145072-1.1482202-3.9142753-.4951286-.88398697-1.2197138-1.61791611-2.0972844-2.12433024-3.8154605-2.22454602-8.5991309-1.91134108-12.0919633.79170642-.1155596.09588991-.2286605.19177982-.3417614.29258716 2.2115507-.31220891 4.3795207.80449376 5.4094204 2.78634576 1.0298997 1.9818521.6977226 4.3977944-.8288333 6.0281497.1770276-.0147523.3515964-.0270459.5286239-.0319633.2212844 0 .4401101-.0172111.656477-.0172111 3.0865395-.0044398 6.0364656 1.2724072 8.1457248 3.5257982 1.2103728-2.2528954 1.8192534-4.7798767 1.7678165-7.3368073z" fill="#ffffff"/></g></svg>